<svg xmlns="http://www.w3.org/2000/svg" viewBox="0 0 335.99 235.19"><defs><style>.cls-1{isolation:isolate;}.cls-2{fill:#596374;}.cls-16,.cls-3{opacity:0.4;}.cls-3{mix-blend-mode:multiply;}.cls-4{fill:#9fa3a9;}.cls-5{fill:#6fb4e4;}.cls-6{fill:#ddd;}.cls-13,.cls-14,.cls-16,.cls-7{fill:#fff;}.cls-8{fill:#b5b5b5;}.cls-9{fill:#2f3b3b;}.cls-10{fill:#ffc941;}.cls-11{fill:#f05751;}.cls-12{fill:#303030;}.cls-12,.cls-13,.cls-14{mix-blend-mode:soft-light;}.cls-14{opacity:0.5;}.cls-15{fill:#5fc39f;}</style></defs><title>D_05</title><g class="cls-1"><g id="items"><rect id="background" class="cls-2" width="335.99" height="235.19"/><g id="shadows" class="cls-3"><path class="cls-4" d="M263.1,91.68h-85a5.67,5.67,0,0,0-5.67,5.67v3.47h-6.61V97.35a5.67,5.67,0,0,0-5.67-5.67h-85a5.67,5.67,0,0,0-5.67,5.67V214a5.67,5.67,0,0,0,5.67,5.67h85a5.67,5.67,0,0,0,5.67-5.67v-3.93h6.61V214a5.67,5.67,0,0,0,5.67,5.67h85a5.67,5.67,0,0,0,5.67-5.67V97.35A5.67,5.67,0,0,0,263.1,91.68Zm-97.33,93.5V182h6.61v3.23h-6.61Zm6.61,2.39v3.23h-6.61v-3.23h6.61Zm-6.61-8v-3.23h6.61v3.23h-6.61Zm0-5.62v-3.23h6.61v3.23h-6.61Zm0-5.62v-3.23h6.61v3.23h-6.61Zm0-5.62v-3.23h6.61v3.23h-6.61Zm0-5.62v-3.23h6.61v3.23h-6.61Zm0-5.62v-3.23h6.61v3.23h-6.61Zm0-5.62v-3.23h6.61v3.23h-6.61Zm0-5.62V137h6.61v3.23h-6.61Zm0-5.62v-3.23h6.61v3.23h-6.61Zm0-5.62v-3.23h6.61v3.23h-6.61Zm0-5.62v-3.23h6.61v3.23h-6.61Zm0-5.62v-3.23h6.61v3.23h-6.61Zm0,75.51h6.61v3.23h-6.61v-3.23Zm6.61-81.14h-6.61v-3.23h6.61v3.23Zm-6.61,86.76h6.61v3.23h-6.61v-3.23Zm6.61-95.62v3.23h-6.61v-3.23h6.61Zm-6.61,104.47v-3.23h6.61v3.23h-6.61Z"/><path class="cls-4" d="M283.52,125l-1.24-4-3.14,10.33v85.58a2.65,2.65,0,0,0,.92,2,3.42,3.42,0,0,0,4.45,0,2.65,2.65,0,0,0,.92-2V131.29L283.51,125h0Z"/><path class="cls-4" d="M309.09,66.34h-8.17a11.27,11.27,0,0,0-11.24,11.24v32.16A11.27,11.27,0,0,0,300.92,121h8.17a11.27,11.27,0,0,0,11.24-11.23V77.58A11.27,11.27,0,0,0,309.09,66.34Z"/><rect class="cls-4" x="82.12" y="14.67" width="174.28" height="67.24"/><path class="cls-4" d="M280,60.12a1.26,1.26,0,0,0-.14-1.58l4.62-5.35-4.19-4-5.11,4.61h0a1.27,1.27,0,0,0-1.61-.16l2.85,2.85-6.11,6.1-0.55,1.29,1.28-.56,6.11-6.1Z"/><path class="cls-4" d="M327.88,28.59h-8.47v-4a1.24,1.24,0,0,0-1,1.19l-6.91.5L311.66,32l6.74,0.34h0a1.25,1.25,0,0,0,1,1.23v-4h8.47l1.28-.51Z"/><path class="cls-4" d="M281.72,31.79L284.52,29a1.24,1.24,0,0,0-1.55.14l-5.24-4.53-3.88,4.11,4.52,5h0a1.25,1.25,0,0,0-.15,1.58l2.8-2.8,6,6L288.26,39l-0.55-1.26Z"/><path class="cls-4" d="M309.14,133.54l2.79-2.79a1.24,1.24,0,0,0-1.55.14l-5.24-4.53-3.88,4.11,4.52,5h0a1.25,1.25,0,0,0-.15,1.58l2.8-2.79,6,6,1.27,0.54-0.55-1.26Z"/><path class="cls-4" d="M25.8,219.51H47.2V43.22H25.8V219.51Zm10.7-171a2.74,2.74,0,1,1-2.74,2.74A2.74,2.74,0,0,1,36.5,48.47Z"/><polygon class="cls-4" points="306.64 150.67 306.64 145.52 303.37 146.64 303.37 150.67 301.52 150.67 296.88 161.19 296.89 161.19 296.89 215.55 297.73 215.55 297.73 219.15 312.28 219.15 312.28 215.55 313.12 215.55 313.12 161.19 313.13 161.19 308.5 150.67 306.64 150.67"/><path class="cls-4" d="M60.21,20.5H57.39v-1H27.32a1.6,1.6,0,0,0-1.6,1.6V32.75a1.6,1.6,0,0,0,1.6,1.61H57.39v-1h2.82V31.43h7.32V22.15H60.21V20.5ZM31.14,29.67a2.74,2.74,0,1,1,2.74-2.74A2.74,2.74,0,0,1,31.14,29.67Zm31.93-6h1.48v2.15H63.08V23.66Zm0,4.11h1.48v2.16H63.08V27.77Z"/></g><g id="papers"><rect class="cls-5" x="65.7" y="91.68" width="96.38" height="127.99" rx="5.67" ry="5.67"/><rect class="cls-5" x="168.7" y="91.68" width="96.38" height="127.99" rx="5.67" ry="5.67"/><path class="cls-6" d="M171.47,102a1.18,1.18,0,0,1-1.17,1.2h-9.61a1.18,1.18,0,0,1-1.17-1.2h0a1.18,1.18,0,0,1,1.17-1.2h9.61a1.18,1.18,0,0,1,1.17,1.2h0Z"/><path class="cls-6" d="M171.47,107.64a1.18,1.18,0,0,1-1.17,1.2h-9.61a1.18,1.18,0,0,1-1.17-1.2h0a1.18,1.18,0,0,1,1.17-1.2h9.61a1.18,1.18,0,0,1,1.17,1.2h0Z"/><path class="cls-6" d="M171.47,113.27a1.18,1.18,0,0,1-1.17,1.2h-9.61a1.18,1.18,0,0,1-1.17-1.2h0a1.18,1.18,0,0,1,1.17-1.2h9.61a1.18,1.18,0,0,1,1.17,1.2h0Z"/><path class="cls-6" d="M171.47,118.89a1.18,1.18,0,0,1-1.17,1.19h-9.61a1.18,1.18,0,0,1-1.17-1.19h0a1.18,1.18,0,0,1,1.17-1.2h9.61a1.18,1.18,0,0,1,1.17,1.2h0Z"/><path class="cls-6" d="M171.47,124.51a1.19,1.19,0,0,1-1.17,1.2h-9.61a1.18,1.18,0,0,1-1.17-1.2h0a1.18,1.18,0,0,1,1.17-1.2h9.61a1.18,1.18,0,0,1,1.17,1.2h0Z"/><path class="cls-6" d="M171.47,130.13a1.19,1.19,0,0,1-1.17,1.2h-9.61a1.18,1.18,0,0,1-1.17-1.2h0a1.18,1.18,0,0,1,1.17-1.2h9.61a1.18,1.18,0,0,1,1.17,1.2h0Z"/><path class="cls-6" d="M171.47,135.76a1.18,1.18,0,0,1-1.17,1.2h-9.61a1.18,1.18,0,0,1-1.17-1.2h0a1.18,1.18,0,0,1,1.17-1.2h9.61a1.19,1.19,0,0,1,1.17,1.2h0Z"/><path class="cls-6" d="M171.47,141.38a1.18,1.18,0,0,1-1.17,1.2h-9.61a1.18,1.18,0,0,1-1.17-1.2h0a1.18,1.18,0,0,1,1.17-1.2h9.61a1.19,1.19,0,0,1,1.17,1.2h0Z"/><path class="cls-6" d="M171.47,147a1.18,1.18,0,0,1-1.17,1.2h-9.61a1.18,1.18,0,0,1-1.17-1.2h0a1.18,1.18,0,0,1,1.17-1.2h9.61a1.19,1.19,0,0,1,1.17,1.2h0Z"/><path class="cls-6" d="M171.47,152.63a1.18,1.18,0,0,1-1.17,1.2h-9.61a1.18,1.18,0,0,1-1.17-1.2h0a1.18,1.18,0,0,1,1.17-1.2h9.61a1.19,1.19,0,0,1,1.17,1.2h0Z"/><path class="cls-6" d="M171.47,158.26a1.18,1.18,0,0,1-1.17,1.2h-9.61a1.18,1.18,0,0,1-1.17-1.2h0a1.18,1.18,0,0,1,1.17-1.2h9.61a1.19,1.19,0,0,1,1.17,1.2h0Z"/><path class="cls-6" d="M171.47,163.88a1.18,1.18,0,0,1-1.17,1.2h-9.61a1.18,1.18,0,0,1-1.17-1.2h0a1.18,1.18,0,0,1,1.17-1.2h9.61a1.19,1.19,0,0,1,1.17,1.2h0Z"/><path class="cls-6" d="M171.47,169.51a1.18,1.18,0,0,1-1.17,1.2h-9.61a1.18,1.18,0,0,1-1.17-1.2h0a1.18,1.18,0,0,1,1.17-1.2h9.61a1.19,1.19,0,0,1,1.17,1.2h0Z"/><path class="cls-6" d="M171.47,175.13a1.18,1.18,0,0,1-1.17,1.2h-9.61a1.18,1.18,0,0,1-1.17-1.2h0a1.18,1.18,0,0,1,1.17-1.2h9.61a1.19,1.19,0,0,1,1.17,1.2h0Z"/><path class="cls-6" d="M171.47,180.76a1.18,1.18,0,0,1-1.17,1.2h-9.61a1.18,1.18,0,0,1-1.17-1.2h0a1.18,1.18,0,0,1,1.17-1.2h9.61a1.19,1.19,0,0,1,1.17,1.2h0Z"/><path class="cls-6" d="M171.47,186.38a1.18,1.18,0,0,1-1.17,1.2h-9.61a1.18,1.18,0,0,1-1.17-1.2h0a1.18,1.18,0,0,1,1.17-1.2h9.61a1.19,1.19,0,0,1,1.17,1.2h0Z"/><path class="cls-6" d="M171.47,192a1.18,1.18,0,0,1-1.17,1.2h-9.61a1.18,1.18,0,0,1-1.17-1.2h0a1.18,1.18,0,0,1,1.17-1.2h9.61a1.19,1.19,0,0,1,1.17,1.2h0Z"/><path class="cls-6" d="M171.47,197.63a1.18,1.18,0,0,1-1.17,1.2h-9.61a1.18,1.18,0,0,1-1.17-1.2h0a1.18,1.18,0,0,1,1.17-1.2h9.61a1.19,1.19,0,0,1,1.17,1.2h0Z"/><path class="cls-6" d="M171.47,203.26a1.18,1.18,0,0,1-1.17,1.2h-9.61a1.18,1.18,0,0,1-1.17-1.2h0a1.18,1.18,0,0,1,1.17-1.2h9.61a1.19,1.19,0,0,1,1.17,1.2h0Z"/><path class="cls-6" d="M171.47,208.88a1.18,1.18,0,0,1-1.17,1.2h-9.61a1.18,1.18,0,0,1-1.17-1.2h0a1.18,1.18,0,0,1,1.17-1.2h9.61a1.19,1.19,0,0,1,1.17,1.2h0Z"/><rect class="cls-7" x="179.54" y="100.82" width="78.5" height="109.26"/><rect class="cls-7" x="72.54" y="100.82" width="78.5" height="109.26"/><polygon class="cls-8" points="208.84 114.6 185.86 114.57 185.85 113.23 208.84 113.26 208.84 114.6"/><polygon class="cls-8" points="252.42 118.07 185.85 117.98 185.86 116.64 252.41 116.73 252.42 118.07"/><polygon class="cls-8" points="252.41 124.2 185.85 124.11 185.86 122.77 252.41 122.86 252.41 124.2"/><polygon class="cls-8" points="252.41 137.48 185.85 137.39 185.86 136.05 252.41 136.14 252.41 137.48"/><polygon class="cls-8" points="252.41 140.73 185.85 140.65 185.86 139.31 252.41 139.39 252.41 140.73"/><polygon class="cls-8" points="240.5 127.59 185.85 127.52 185.85 126.18 240.51 126.25 240.5 127.59"/><polygon class="cls-8" points="219.45 120.75 185.85 120.7 185.85 119.37 219.45 119.41 219.45 120.75"/><polygon class="cls-8" points="252.43 120.79 221.64 120.76 221.65 119.42 252.43 119.46 252.43 120.79"/><polygon class="cls-8" points="219.45 134.26 185.85 134.22 185.85 132.88 219.45 132.92 219.45 134.26"/><polygon class="cls-8" points="252.43 134.3 221.64 134.27 221.65 132.93 252.43 132.97 252.43 134.3"/><polygon class="cls-8" points="234.63 114.64 211.65 114.61 211.66 113.26 234.63 113.3 234.63 114.64"/><polygon class="cls-8" points="252.41 114.66 237.31 114.64 237.31 113.3 252.42 113.32 252.41 114.66"/><polygon class="cls-8" points="208.84 131.07 185.86 131.04 185.85 129.69 208.84 129.73 208.84 131.07"/><polygon class="cls-8" points="252.42 129.78 234.63 129.76 234.63 129.76 211.66 129.73 211.65 131.07 234.63 131.1 234.63 131.1 252.41 131.13 252.42 129.78"/><polygon class="cls-8" points="208.84 143.98 185.86 143.94 185.85 142.6 208.84 142.63 208.84 143.98"/><polygon class="cls-8" points="252.42 147.44 185.85 147.35 185.86 146.01 252.41 146.1 252.42 147.44"/><polygon class="cls-8" points="252.41 153.58 185.85 153.49 185.86 152.15 252.41 152.24 252.41 153.58"/><polygon class="cls-8" points="252.41 166.86 185.85 166.77 185.86 165.43 252.41 165.52 252.41 166.86"/><polygon class="cls-8" points="252.41 170.11 185.85 170.03 185.86 168.69 252.41 168.77 252.41 170.11"/><polygon class="cls-8" points="240.5 156.97 185.85 156.9 185.85 155.56 240.51 155.63 240.5 156.97"/><polygon class="cls-8" points="219.45 150.12 185.85 150.08 185.85 148.74 219.45 148.78 219.45 150.12"/><polygon class="cls-8" points="252.43 150.17 221.64 150.13 221.65 148.79 252.43 148.83 252.43 150.17"/><polygon class="cls-8" points="219.45 163.64 185.85 163.6 185.85 162.26 219.45 162.3 219.45 163.64"/><polygon class="cls-8" points="252.43 163.69 221.64 163.65 221.65 162.31 252.43 162.35 252.43 163.69"/><polygon class="cls-8" points="234.63 144.01 211.65 143.98 211.66 142.63 234.63 142.67 234.63 144.01"/><polygon class="cls-8" points="252.41 144.03 237.31 144.01 237.31 142.67 252.42 142.69 252.41 144.03"/><polygon class="cls-8" points="208.84 160.45 185.86 160.42 185.85 159.08 208.84 159.11 208.84 160.45"/><polygon class="cls-8" points="252.42 159.16 234.63 159.14 234.63 159.14 211.66 159.11 211.65 160.45 234.63 160.49 234.63 160.48 252.41 160.51 252.42 159.16"/><polygon class="cls-8" points="208.84 173.36 185.86 173.32 185.85 171.98 208.84 172.01 208.84 173.36"/><polygon class="cls-8" points="252.42 176.82 185.85 176.73 185.86 175.39 252.41 175.48 252.42 176.82"/><polygon class="cls-8" points="252.41 182.96 185.85 182.87 185.86 181.53 252.41 181.62 252.41 182.96"/><polygon class="cls-8" points="252.41 196.24 185.85 196.15 185.86 194.81 252.41 194.9 252.41 196.24"/><polygon class="cls-8" points="252.41 199.49 185.85 199.41 185.86 198.07 252.41 198.15 252.41 199.49"/><polygon class="cls-8" points="240.5 186.35 185.85 186.28 185.85 184.94 240.51 185.01 240.5 186.35"/><polygon class="cls-8" points="219.45 179.5 185.85 179.46 185.85 178.12 219.45 178.16 219.45 179.5"/><polygon class="cls-8" points="252.43 179.55 221.64 179.51 221.65 178.17 252.43 178.21 252.43 179.55"/><polygon class="cls-8" points="219.45 193.02 185.85 192.98 185.85 191.64 219.45 191.68 219.45 193.02"/><polygon class="cls-8" points="252.43 193.06 221.64 193.03 221.65 191.69 252.43 191.73 252.43 193.06"/><polygon class="cls-8" points="234.63 173.39 211.65 173.36 211.66 172.01 234.63 172.05 234.63 173.39"/><polygon class="cls-8" points="252.41 173.41 237.31 173.39 237.31 172.05 252.42 172.07 252.41 173.41"/><polygon class="cls-8" points="208.84 189.83 185.86 189.8 185.85 188.46 208.84 188.49 208.84 189.83"/><polygon class="cls-8" points="252.42 188.54 234.63 188.52 234.63 188.52 211.66 188.49 211.65 189.83 234.63 189.86 234.63 189.86 252.41 189.89 252.42 188.54"/></g><g id="pencil"><polygon class="cls-7" points="275.46 131.29 278.6 120.97 281.74 131.29 275.46 131.29"/><rect class="cls-9" x="275.46" y="131.29" width="6.29" height="78.43"/><polygon class="cls-9" points="277.37 125.01 278.6 120.97 279.84 125.01 277.37 125.01"/><rect class="cls-10" x="275.46" y="209.72" width="6.29" height="3.65"/><path class="cls-11" d="M275.46,216.87a2.65,2.65,0,0,0,.92,2,3.34,3.34,0,0,0,2.22.82h0a3.34,3.34,0,0,0,2.22-.82,2.65,2.65,0,0,0,.92-2v-3.5h-6.29v3.5Z"/></g><g id="mouse"><path class="cls-7" d="M316.65,109.73A11.27,11.27,0,0,1,305.41,121h-8.17A11.27,11.27,0,0,1,286,109.73V77.58a11.27,11.27,0,0,1,11.24-11.24h8.17a11.27,11.27,0,0,1,11.24,11.24v32.16Z"/><path class="cls-4" d="M303.88,78.09a2.55,2.55,0,1,1-2.55-2.56A2.55,2.55,0,0,1,303.88,78.09Z"/></g><g id="keyboard"><rect class="cls-6" x="78.43" y="14.67" width="174.28" height="67.24"/><rect class="cls-7" x="84.17" y="20.4" width="8.68" height="8.68"/><rect class="cls-7" x="226.88" y="31.82" width="8.68" height="8.68"/><rect class="cls-7" x="215.47" y="31.82" width="8.68" height="8.68"/><rect class="cls-7" x="204.05" y="31.82" width="8.68" height="8.68"/><rect class="cls-7" x="192.63" y="31.82" width="8.68" height="8.68"/><rect class="cls-7" x="181.22" y="31.82" width="8.68" height="8.68"/><rect class="cls-7" x="169.8" y="31.82" width="8.68" height="8.68"/><rect class="cls-7" x="158.38" y="31.82" width="8.68" height="8.68"/><rect class="cls-7" x="146.96" y="31.82" width="8.69" height="8.68"/><rect class="cls-7" x="135.55" y="31.82" width="8.68" height="8.68"/><rect class="cls-7" x="124.13" y="31.82" width="8.69" height="8.68"/><rect class="cls-7" x="112.72" y="31.82" width="8.68" height="8.68"/><rect class="cls-7" x="101.3" y="31.82" width="8.68" height="8.68"/><rect class="cls-7" x="104.05" y="43.23" width="8.68" height="8.68"/><rect class="cls-7" x="98.47" y="54.64" width="8.68" height="8.68"/><rect class="cls-7" x="109.88" y="54.64" width="8.68" height="8.68"/><rect class="cls-7" x="121.3" y="54.64" width="8.68" height="8.68"/><rect class="cls-7" x="132.71" y="54.64" width="8.68" height="8.68"/><rect class="cls-7" x="144.13" y="54.64" width="8.69" height="8.68"/><rect class="cls-7" x="155.55" y="54.64" width="8.68" height="8.68"/><rect class="cls-7" x="166.96" y="54.64" width="8.68" height="8.68"/><rect class="cls-7" x="178.37" y="54.64" width="8.68" height="8.68"/><rect class="cls-7" x="189.79" y="54.64" width="8.68" height="8.68"/><rect class="cls-7" x="201.21" y="54.64" width="8.68" height="8.68"/><rect class="cls-7" x="212.62" y="54.64" width="8.68" height="8.68"/><rect class="cls-7" x="224.01" y="54.64" width="22.97" height="8.68"/><rect class="cls-7" x="115.47" y="43.23" width="8.69" height="8.68"/><rect class="cls-7" x="126.88" y="43.23" width="8.68" height="8.68"/><rect class="cls-7" x="138.3" y="43.23" width="8.68" height="8.68"/><rect class="cls-7" x="149.71" y="43.23" width="8.69" height="8.68"/><rect class="cls-7" x="161.12" y="43.23" width="8.68" height="8.68"/><rect class="cls-7" x="172.54" y="43.23" width="8.68" height="8.68"/><rect class="cls-7" x="183.95" y="43.23" width="8.68" height="8.68"/><rect class="cls-7" x="195.36" y="43.23" width="8.68" height="8.68"/><rect class="cls-7" x="206.77" y="43.23" width="8.69" height="8.68"/><rect class="cls-7" x="218.19" y="43.23" width="8.68" height="8.68"/><rect class="cls-7" x="229.6" y="43.23" width="8.68" height="8.68"/><rect class="cls-7" x="95.59" y="20.4" width="8.68" height="8.68"/><rect class="cls-7" x="107" y="20.4" width="8.68" height="8.68"/><rect class="cls-7" x="118.42" y="20.4" width="8.68" height="8.68"/><rect class="cls-7" x="129.83" y="20.4" width="8.68" height="8.68"/><rect class="cls-7" x="141.25" y="20.4" width="8.68" height="8.68"/><rect class="cls-7" x="152.67" y="20.4" width="8.68" height="8.68"/><rect class="cls-7" x="164.09" y="20.4" width="8.68" height="8.68"/><rect class="cls-7" x="175.5" y="20.4" width="8.68" height="8.68"/><rect class="cls-7" x="186.92" y="20.4" width="8.68" height="8.68"/><rect class="cls-7" x="198.33" y="20.4" width="8.68" height="8.68"/><rect class="cls-7" x="209.75" y="20.4" width="8.67" height="8.68"/><rect class="cls-7" x="221.16" y="20.4" width="8.68" height="8.68"/><rect class="cls-7" x="232.58" y="20.4" width="14.4" height="8.68"/><rect class="cls-7" x="84.17" y="31.82" width="14.4" height="8.68"/><rect class="cls-7" x="84.17" y="43.23" width="17.16" height="8.68"/><rect class="cls-7" x="84.17" y="54.64" width="11.57" height="8.68"/><rect class="cls-7" x="84.17" y="66.05" width="8.69" height="10.12"/><rect class="cls-7" x="95.55" y="66.05" width="8.69" height="10.12"/><rect class="cls-7" x="106.94" y="66.05" width="8.69" height="10.12"/><rect class="cls-7" x="118.32" y="66.05" width="11.66" height="10.12"/><rect class="cls-7" x="132.7" y="66.05" width="54.35" height="10.12"/><rect class="cls-7" x="189.79" y="66.05" width="11.65" height="10.12"/><rect class="cls-7" x="204.15" y="66.05" width="8.69" height="10.12"/><rect class="cls-7" x="215.56" y="71.46" width="8.68" height="4.72"/><rect class="cls-7" x="226.93" y="71.74" width="8.69" height="4.44"/><rect class="cls-7" x="226.93" y="66.03" width="8.69" height="4.44"/><rect class="cls-7" x="238.3" y="71.46" width="8.68" height="4.72"/><polygon class="cls-7" points="241.01 51.91 241.01 40.5 238.3 40.5 238.3 31.82 246.98 31.82 246.98 51.91 241.01 51.91"/></g><g id="small_items" data-name="small items"><rect class="cls-12" x="8.97" y="102.64" width="6.93" height="6.94"/><rect class="cls-12" x="63.27" y="43.77" width="6.93" height="6.94"/><rect class="cls-12" x="322.01" y="190.35" width="6.93" height="6.94"/><rect class="cls-12" x="53.06" y="151.98" width="6.93" height="6.94"/><rect class="cls-12" x="282.3" y="16.17" width="3.93" height="3.93"/><rect class="cls-12" x="269.5" y="78.68" width="3.93" height="3.93"/><rect class="cls-13" x="67.65" y="66.51" width="3.47" height="3.47"/><rect class="cls-13" x="10.7" y="20.41" width="3.47" height="3.47"/><rect class="cls-14" x="53.38" y="215.62" width="3.47" height="3.47"/><rect class="cls-13" x="14.16" y="194.5" width="3.47" height="3.47"/><rect class="cls-12" x="47.37" y="170.25" width="3.47" height="3.47"/><rect class="cls-14" x="314.91" y="58.38" width="3.47" height="3.47"/><rect class="cls-13" x="289.73" y="143.49" width="3.47" height="3.47"/><rect class="cls-13" x="7.23" y="137.58" width="3.47" height="3.47"/><rect class="cls-13" x="261.61" y="16.92" width="3.47" height="3.47"/><rect class="cls-13" x="318.87" y="215.62" width="3.47" height="3.47"/><rect class="cls-13" x="297.51" y="41.86" width="7.63" height="7.63"/><rect class="cls-13" x="52.71" y="82.61" width="7.63" height="7.63"/></g><g id="pin"><path class="cls-11" d="M280.83,53.19l-4.19-4-5.11,4.61h0a1.27,1.27,0,0,0-1.61-.16l6.43,6.43a1.26,1.26,0,0,0-.14-1.58Z"/><polygon class="cls-7" points="267.39 63.37 266.11 63.94 266.66 62.65 272.77 56.54 273.49 57.27 267.39 63.37"/></g><g id="pin-2" data-name="pin"><path class="cls-11" d="M307.82,26.33L308,32l6.74,0.34h0a1.25,1.25,0,0,0,1,1.23V24.64a1.24,1.24,0,0,0-1,1.19Z"/><polygon class="cls-7" points="324.2 28.59 325.48 29.09 324.2 29.6 315.73 29.6 315.73 28.59 324.2 28.59"/></g><g id="pin-3" data-name="pin"><path class="cls-10" d="M274,24.6l-3.88,4.11,4.52,5h0a1.25,1.25,0,0,0-.15,1.58l6.3-6.3a1.24,1.24,0,0,0-1.55.14Z"/><polygon class="cls-7" points="284.03 37.78 284.58 39.04 283.31 38.49 277.33 32.51 278.04 31.79 284.03 37.78"/></g><g id="pin-4" data-name="pin"><path class="cls-5" d="M301.46,126.35l-3.88,4.11,4.52,5h0a1.25,1.25,0,0,0-.15,1.58l6.3-6.3a1.24,1.24,0,0,0-1.55.14Z"/><polygon class="cls-7" points="311.45 139.53 312 140.78 310.73 140.24 304.75 134.26 305.46 133.54 311.45 139.53"/></g><g id="glasses"><path class="cls-9" d="M127.64,147.31h0a37.06,37.06,0,0,0-17.07,4.27l-0.28.12C107.46,153,64,183.41,53.36,192.59a19,19,0,0,0,2,2.38c3.07-2.17,35.39-27.35,50-38h0l0.78-.57,0,0,0.09-.07-0.06,0c2.2-1.55,8.61-5.74,13.62-5.65a48.76,48.76,0,0,1,5.65.63c5.9,1,10.26-.86,9.6-3.12C134.71,147.23,131.72,146.94,127.64,147.31Z"/><path class="cls-9" d="M71.89,203.06h0A37.08,37.08,0,0,1,76.16,186l0.12-.28c1.29-2.84,31.71-46.25,40.89-56.94a19.13,19.13,0,0,1,2.38,2c-2.17,3.07-27.35,35.39-38,50h0l-0.57.78,0,0-0.07.09,0-.06c-1.55,2.2-5.74,8.61-5.65,13.62a48.52,48.52,0,0,0,.63,5.65c1,5.9-.86,10.26-3.12,9.6C71.82,210.13,71.53,207.13,71.89,203.06Z"/><path class="cls-15" d="M119.67,123.88l-7.18,7.18s-12.62,12-19.14,20.54c-4.36,5.69-.78,8-1.29,10.28a12.47,12.47,0,0,1-2.16,3.43,12.45,12.45,0,0,1-3.43,2.16c-2.32.51-4.58-3.07-10.28,1.29-8.51,6.52-20.54,19.14-20.54,19.14l-7.18,7.18L51.4,198l2.71-2.71a13.5,13.5,0,0,0,3.69,4.5l0.05,0c2.58,2.12,9.44,7.09,14.48,4.84h0l0.06-.05a6.4,6.4,0,0,0,1.52-1h0a11.92,11.92,0,0,0,1.48-1.2l0.42-.35h0l0,0c0.91-.76,3-2.59,5.83-5.38a124.42,124.42,0,0,0,9.91-11,7.71,7.71,0,0,0,.31-8.12c-3-4.56-1.87-8.26-.09-10.3,2-1.78,5.75-2.9,10.3.09a7.71,7.71,0,0,0,8.12-.31,124.55,124.55,0,0,0,11-9.91c2.79-2.81,4.62-4.93,5.38-5.83l0,0h0l0.35-.42a12.05,12.05,0,0,0,1.2-1.48h0a6.32,6.32,0,0,0,1-1.52l0.05-.06v0c2.25-5-2.72-11.91-4.84-14.48l0-.05a13.48,13.48,0,0,0-4.5-3.69l2.71-2.71ZM90.45,179.11a5.19,5.19,0,0,1-.2,5.77A121.15,121.15,0,0,1,75.87,200c-0.45.37-1,.79-1.52,1.29a7.56,7.56,0,0,1-8.57,1.18l-0.25-.13c-2.47-1.37-6.64-4.37-8.71-7.47-1.15-1.71-1-3.06,1.23-5.62a98.25,98.25,0,0,1,21.12-17.83c1.77-1,3.9-1.22,5.27,0A29.75,29.75,0,0,1,90.45,179.11ZM127,141l0.13,0.25a7.56,7.56,0,0,1-1.18,8.57c-0.5.57-.93,1.07-1.29,1.52a121.09,121.09,0,0,1-15.17,14.38,5.19,5.19,0,0,1-5.76.2,29.75,29.75,0,0,1-7.61-6c-1.26-1.37-1.08-3.5,0-5.27a98.23,98.23,0,0,1,17.83-21.12c2.56-2.25,3.91-2.38,5.62-1.23C122.6,134.32,125.61,138.48,127,141Z"/><path class="cls-16" d="M96.08,159.88c-1.26-1.37-1.08-3.5,0-5.27a98.23,98.23,0,0,1,17.83-21.12c2.56-2.25,3.91-2.38,5.62-1.23,3.1,2.07,6.1,6.23,7.47,8.71h0l0.13,0.25a7.56,7.56,0,0,1-1.18,8.57c-0.5.57-.93,1.07-1.29,1.52a121.09,121.09,0,0,1-15.17,14.38,5.19,5.19,0,0,1-5.76.2A29.75,29.75,0,0,1,96.08,159.88Z"/><path class="cls-16" d="M90.45,179.11a5.19,5.19,0,0,1-.2,5.77A121.15,121.15,0,0,1,75.87,200c-0.45.37-1,.79-1.52,1.29a7.56,7.56,0,0,1-8.57,1.18l-0.25-.13h0c-2.47-1.37-6.64-4.37-8.71-7.47-1.15-1.71-1-3.06,1.23-5.62a98.25,98.25,0,0,1,21.12-17.83c1.77-1,3.9-1.22,5.27,0A29.75,29.75,0,0,1,90.45,179.11Z"/></g><g id="ruler"><path class="cls-10" d="M43.51,43.22H22.12V219.51H43.51V43.22Zm-13.44,8A2.74,2.74,0,1,1,32.81,54,2.74,2.74,0,0,1,30.07,51.21Z"/><rect class="cls-7" x="22.39" y="214.71" width="5.07" height="0.79"/><rect class="cls-7" x="22.39" y="210.3" width="5.07" height="0.79"/><rect class="cls-7" x="22.39" y="205.89" width="5.07" height="0.79"/><rect class="cls-7" x="22.39" y="201.48" width="5.07" height="0.79"/><rect class="cls-7" x="22.38" y="197.08" width="5.07" height="0.79"/><rect class="cls-7" x="22.39" y="192.67" width="5.07" height="0.79"/><rect class="cls-7" x="22.39" y="188.26" width="5.07" height="0.79"/><rect class="cls-7" x="22.39" y="183.85" width="5.07" height="0.79"/><rect class="cls-7" x="22.39" y="179.45" width="5.07" height="0.79"/><rect class="cls-7" x="22.39" y="175.04" width="5.07" height="0.79"/><rect class="cls-7" x="22.39" y="170.64" width="5.07" height="0.79"/><rect class="cls-7" x="22.38" y="166.23" width="5.07" height="0.79"/><rect class="cls-7" x="22.39" y="161.82" width="5.07" height="0.79"/><rect class="cls-7" x="22.39" y="157.41" width="5.07" height="0.79"/><rect class="cls-7" x="22.39" y="153" width="5.07" height="0.79"/><rect class="cls-7" x="22.39" y="148.6" width="5.07" height="0.79"/><rect class="cls-7" x="22.38" y="144.19" width="5.07" height="0.79"/><rect class="cls-7" x="22.39" y="139.78" width="5.07" height="0.79"/><rect class="cls-7" x="22.39" y="135.37" width="5.07" height="0.79"/><rect class="cls-7" x="22.39" y="130.97" width="5.07" height="0.79"/><rect class="cls-7" x="22.39" y="126.56" width="5.07" height="0.79"/><rect class="cls-7" x="22.39" y="122.15" width="5.07" height="0.79"/><rect class="cls-7" x="22.39" y="117.75" width="5.07" height="0.79"/><rect class="cls-7" x="22.38" y="113.34" width="5.07" height="0.79"/><rect class="cls-7" x="22.38" y="108.94" width="5.07" height="0.79"/><rect class="cls-7" x="22.39" y="104.53" width="5.07" height="0.79"/><rect class="cls-7" x="22.39" y="100.12" width="5.07" height="0.79"/><rect class="cls-7" x="22.39" y="95.72" width="5.07" height="0.79"/><rect class="cls-7" x="22.38" y="91.31" width="5.07" height="0.79"/><rect class="cls-7" x="22.39" y="86.9" width="5.07" height="0.79"/><rect class="cls-7" x="22.39" y="82.5" width="5.07" height="0.79"/><rect class="cls-7" x="22.39" y="78.09" width="5.07" height="0.79"/><rect class="cls-7" x="22.39" y="73.68" width="5.07" height="0.79"/><rect class="cls-7" x="22.39" y="69.27" width="5.07" height="0.79"/><rect class="cls-7" x="22.39" y="64.87" width="5.07" height="0.79"/><rect class="cls-7" x="22.39" y="60.46" width="5.07" height="0.79"/><rect class="cls-7" x="22.39" y="56.05" width="5.07" height="0.79"/><rect class="cls-7" x="22.39" y="51.64" width="5.07" height="0.79"/><rect class="cls-7" x="22.39" y="47.23" width="5.07" height="0.79"/></g><g id="highlighter"><rect class="cls-11" x="293.21" y="161.18" width="16.23" height="54.36"/><rect class="cls-9" x="294.05" y="215.55" width="14.56" height="3.61"/><polygon class="cls-9" points="293.2 161.19 297.83 150.67 304.81 150.67 309.45 161.19 293.2 161.19"/><polygon class="cls-11" points="299.69 150.67 299.69 146.64 302.96 145.52 302.96 150.67 299.69 150.67"/></g><g id="pendrive"><path class="cls-7" d="M56.42,22.15v9.29h7.42V22.15H56.42Zm3,7.78V27.77h1.48v2.16H59.39Zm0-6.26h1.48v2.15H59.39V23.66Z"/><rect class="cls-11" x="53.7" y="20.5" width="2.82" height="12.87"/><path class="cls-4" d="M23.63,19.51a1.6,1.6,0,0,0-1.6,1.6V32.75a1.6,1.6,0,0,0,1.6,1.61H53.7V19.51H23.63Zm3.83,10.16a2.74,2.74,0,1,1,2.74-2.74A2.74,2.74,0,0,1,27.46,29.67Z"/></g></g></g></svg>